<svg width="80" height="80" viewBox="0 0 80 80" fill="none" xmlns="http://www.w3.org/2000/svg">
<rect x="8.5" y="8.5" width="63" height="63" rx="31.5" stroke="#2873FF"/>
<path d="M35.2797 40.9468L42.8264 48.4801C42.9503 48.6051 43.0978 48.7043 43.2603 48.772C43.4227 48.8397 43.597 48.8745 43.773 48.8745C43.949 48.8745 44.1233 48.8397 44.2858 48.772C44.4483 48.7043 44.5957 48.6051 44.7197 48.4801C44.968 48.2303 45.1074 47.8924 45.1074 47.5401C45.1074 47.1879 44.968 46.8499 44.7197 46.6001L38.1197 39.9334L44.7197 33.3334C44.968 33.0836 45.1074 32.7457 45.1074 32.3934C45.1074 32.0412 44.968 31.7033 44.7197 31.4534C44.5962 31.3275 44.449 31.2272 44.2865 31.1586C44.124 31.0899 43.9494 31.0542 43.773 31.0534C43.5966 31.0542 43.4221 31.0899 43.2596 31.1586C43.0971 31.2272 42.9499 31.3275 42.8264 31.4534L35.2797 38.9868C35.1444 39.1116 35.0363 39.2632 34.9625 39.4318C34.8886 39.6005 34.8505 39.7826 34.8505 39.9668C34.8505 40.1509 34.8886 40.3331 34.9625 40.5017C35.0363 40.6704 35.1444 40.8219 35.2797 40.9468Z" fill="#2873FF"/>
</svg>
