<svg width="27" height="28" viewBox="0 0 27 28" fill="none" xmlns="http://www.w3.org/2000/svg">
<path d="M18.1515 17.0838C16.6706 19.8469 15.5541 21.7303 13.5505 24.5905C13.527 24.6241 13.476 24.6242 13.4526 24.5906C11.4529 21.7186 10.1167 19.5681 8.74465 17.0854C7.21863 14.3242 7.5121 10.6644 10.1173 8.88507C12.3811 7.3389 14.3989 7.26318 16.7851 8.88055C19.395 10.6495 19.6409 14.3049 18.1515 17.0838Z" stroke="#2873FF" stroke-width="2" stroke-linecap="round" stroke-linejoin="round"/>
<circle cx="13.4461" cy="13.9466" r="1.67857" stroke="#2873FF" stroke-width="2"/>
<path d="M5.31038 18.4955C4.47977 17.0099 4.07175 15.3253 4.13057 13.6243C4.18938 11.9233 4.71279 10.2709 5.64402 8.84628" stroke="#2873FF" stroke-linecap="round"/>
<path d="M2.19228 20.2385C1.04343 18.1838 0.479085 15.8537 0.560435 13.501C0.641785 11.1483 1.36573 8.86282 2.65376 6.89235" stroke="#2873FF" stroke-linecap="round"/>
<path d="M21.5822 18.4955C22.4128 17.0099 22.8208 15.3253 22.762 13.6243C22.7032 11.9233 22.1798 10.2709 21.2486 8.84628" stroke="#2873FF" stroke-linecap="round"/>
<path d="M24.6983 20.2385C25.8472 18.1838 26.4115 15.8537 26.3302 13.501C26.2488 11.1483 25.5249 8.86282 24.2369 6.89235" stroke="#2873FF" stroke-linecap="round"/>
</svg>
