<svg width="23" height="22" viewBox="0 0 23 22" fill="none" xmlns="http://www.w3.org/2000/svg">
<path d="M15.3639 8.82617H19.8695C20.9741 8.82617 21.8695 9.7216 21.8695 10.8262V19.0001C21.8695 20.1046 20.9741 21 19.8695 21H3C1.89543 21 1 20.1046 1 19V10.8262C1 9.7216 1.89543 8.82617 3 8.82617H6.8776" stroke="#2873FF" stroke-width="2" stroke-linecap="round"/>
<path d="M8.39062 4.04347L11.4341 1M11.4341 1L14.4776 4.04347M11.4341 1V7.9565" stroke="#2873FF" stroke-width="2" stroke-linecap="round" stroke-linejoin="round"/>
<path d="M13.5404 14.4159C13.5404 15.5507 12.6693 16.3973 11.6833 16.3973C10.6973 16.3973 9.82617 15.5507 9.82617 14.4159C9.82617 13.2811 10.6973 12.4346 11.6833 12.4346C12.6693 12.4346 13.5404 13.2811 13.5404 14.4159Z" stroke="#2873FF" stroke-width="2"/>
</svg>
