<svg width="32" height="32" viewBox="0 0 32 32" fill="none" xmlns="http://www.w3.org/2000/svg">
<path d="M11.2797 16.9468L18.8264 24.4801C18.9503 24.6051 19.0978 24.7043 19.2603 24.772C19.4227 24.8397 19.597 24.8745 19.773 24.8745C19.949 24.8745 20.1233 24.8397 20.2858 24.772C20.4483 24.7043 20.5957 24.6051 20.7197 24.4801C20.968 24.2303 21.1074 23.8924 21.1074 23.5401C21.1074 23.1879 20.968 22.8499 20.7197 22.6001L14.1197 15.9334L20.7197 9.33345C20.968 9.08363 21.1074 8.7457 21.1074 8.39345C21.1074 8.0412 20.968 7.70327 20.7197 7.45345C20.5962 7.32747 20.449 7.22724 20.2865 7.15858C20.124 7.08991 19.9494 7.05418 19.773 7.05345C19.5966 7.05418 19.4221 7.08991 19.2596 7.15858C19.0971 7.22724 18.9499 7.32747 18.8264 7.45345L11.2797 14.9868C11.1444 15.1116 11.0363 15.2632 10.9625 15.4318C10.8886 15.6005 10.8505 15.7826 10.8505 15.9668C10.8505 16.1509 10.8886 16.3331 10.9625 16.5017C11.0363 16.6704 11.1444 16.8219 11.2797 16.9468Z" fill="#2873FF"/>
</svg>
